<svg width="165" height="49" viewBox="0 0 165 49" fill="none" xmlns="http://www.w3.org/2000/svg">
<rect x="4.31836" y="2.18433" width="44.6314" height="44.6314" rx="22.3157" fill="#48C9B0"/>
<line x1="26.8021" y1="9.77173" x2="26.8021" y2="40.1211" stroke="#A1EEDA" stroke-width="0.334736"/>
<line x1="41.8086" y1="25.1137" x2="11.4592" y2="25.1137" stroke="#A1EEDA" stroke-width="0.334736"/>
<circle cx="26.6347" cy="24.4999" r="15.2863" stroke="#A1EEDA" stroke-width="0.669471" stroke-dasharray="1.79 1.79"/>
<circle cx="26.6344" cy="24.4998" r="18.801" stroke="#6ADEC4" stroke-width="0.334736" stroke-dasharray="2.23 2.23"/>
<line x1="10.4117" y1="39.9732" x2="41.8769" y2="8.50811" stroke="#6ADEC4" stroke-width="0.111579"/>
<line x1="41.8766" y1="40.7216" x2="10.4114" y2="9.25644" stroke="#6ADEC4" stroke-width="0.111579"/>
<path d="M31.3688 19.0082L29.0019 27.687L20.3231 30.0539L22.69 21.3751L31.3688 19.0082Z" fill="white"/>
<path d="M54.698 36.4998V12.3124H65.1677C67.333 12.3124 69.1989 12.6695 70.7653 13.3836C72.3317 14.0746 73.5411 15.0767 74.3934 16.3897C75.2457 17.7027 75.6719 19.2692 75.6719 21.089C75.6719 22.8857 75.2457 24.4406 74.3934 25.7537C73.5411 27.0437 72.3317 28.0342 70.7653 28.7253C69.1989 29.4163 67.333 29.7619 65.1677 29.7619H57.8078L60.2956 27.3086V36.4998H54.698ZM70.0742 36.4998L64.0274 27.7232H70.0051L76.1211 36.4998H70.0742ZM60.2956 27.9305L57.8078 25.3045H64.8567C66.5844 25.3045 67.8743 24.9359 68.7267 24.1988C69.579 23.4386 70.0051 22.402 70.0051 21.089C70.0051 19.7529 69.579 18.7163 68.7267 17.9792C67.8743 17.242 66.5844 16.8735 64.8567 16.8735H57.8078L60.2956 14.2128V27.9305ZM79.7268 36.4998V17.9101H85.1171V36.4998H79.7268ZM82.4219 15.3186C81.4314 15.3186 80.6252 15.0306 80.0032 14.4547C79.3812 13.8788 79.0703 13.1647 79.0703 12.3124C79.0703 11.4601 79.3812 10.746 80.0032 10.1701C80.6252 9.59422 81.4314 9.30627 82.4219 9.30627C83.4125 9.30627 84.2187 9.5827 84.8407 10.1356C85.4626 10.6654 85.7736 11.3564 85.7736 12.2088C85.7736 13.1071 85.4626 13.8558 84.8407 14.4547C84.2417 15.0306 83.4355 15.3186 82.4219 15.3186ZM101.108 36.7762C99.5413 36.7762 98.1707 36.4306 96.9959 35.7396C95.8211 35.0485 94.8997 34.0004 94.2316 32.5952C93.5866 31.167 93.2641 29.3702 93.2641 27.2049C93.2641 25.0165 93.5751 23.2198 94.1971 21.8146C94.819 20.4094 95.7174 19.3613 96.8922 18.6702C98.067 17.9792 99.4722 17.6336 101.108 17.6336C102.858 17.6336 104.425 18.0368 105.807 18.843C107.212 19.6262 108.318 20.7319 109.124 22.1601C109.953 23.5883 110.368 25.2699 110.368 27.2049C110.368 29.1629 109.953 30.856 109.124 32.2842C108.318 33.7125 107.212 34.8182 105.807 35.6014C104.425 36.3846 102.858 36.7762 101.108 36.7762ZM90.1198 43.2031V17.9101H95.2682V21.7109L95.1646 27.2395L95.5101 32.7334V43.2031H90.1198ZM100.175 32.3534C101.073 32.3534 101.868 32.146 102.559 31.7314C103.273 31.3168 103.837 30.7293 104.252 29.9692C104.69 29.186 104.909 28.2645 104.909 27.2049C104.909 26.1222 104.69 25.2008 104.252 24.4406C103.837 23.6805 103.273 23.0931 102.559 22.6784C101.868 22.2638 101.073 22.0565 100.175 22.0565C99.2764 22.0565 98.4702 22.2638 97.7561 22.6784C97.042 23.0931 96.4776 23.6805 96.0629 24.4406C95.6483 25.2008 95.441 26.1222 95.441 27.2049C95.441 28.2645 95.6483 29.186 96.0629 29.9692C96.4776 30.7293 97.042 31.3168 97.7561 31.7314C98.4702 32.146 99.2764 32.3534 100.175 32.3534ZM124.964 36.7762C123.398 36.7762 122.027 36.4306 120.853 35.7396C119.678 35.0485 118.756 34.0004 118.088 32.5952C117.443 31.167 117.121 29.3702 117.121 27.2049C117.121 25.0165 117.432 23.2198 118.054 21.8146C118.676 20.4094 119.574 19.3613 120.749 18.6702C121.924 17.9792 123.329 17.6336 124.964 17.6336C126.715 17.6336 128.282 18.0368 129.664 18.843C131.069 19.6262 132.175 20.7319 132.981 22.1601C133.81 23.5883 134.225 25.2699 134.225 27.2049C134.225 29.1629 133.81 30.856 132.981 32.2842C132.175 33.7125 131.069 34.8182 129.664 35.6014C128.282 36.3846 126.715 36.7762 124.964 36.7762ZM113.976 43.2031V17.9101H119.125V21.7109L119.021 27.2395L119.367 32.7334V43.2031H113.976ZM124.031 32.3534C124.93 32.3534 125.725 32.146 126.416 31.7314C127.13 31.3168 127.694 30.7293 128.109 29.9692C128.546 29.186 128.765 28.2645 128.765 27.2049C128.765 26.1222 128.546 25.2008 128.109 24.4406C127.694 23.6805 127.13 23.0931 126.416 22.6784C125.725 22.2638 124.93 22.0565 124.031 22.0565C123.133 22.0565 122.327 22.2638 121.613 22.6784C120.899 23.0931 120.334 23.6805 119.92 24.4406C119.505 25.2008 119.298 26.1222 119.298 27.2049C119.298 28.2645 119.505 29.186 119.92 29.9692C120.334 30.7293 120.899 31.3168 121.613 31.7314C122.327 32.146 123.133 32.3534 124.031 32.3534ZM137.833 36.4998V10.8612H143.223V36.4998H137.833Z" fill="white"/>
<path d="M145.83 3.26392C145.83 3.26392 158.899 6.35213 160.136 12.7191C161.215 18.2675 152.331 19.964 153.161 25.5511C153.818 29.9834 160.34 33.3843 160.136 37.8564C159.857 43.9955 145.83 45.7357 145.83 45.7357" stroke="#48C9B0" stroke-width="6"/>
</svg>
